<?xml version="1.0" standalone="no"?>
<!DOCTYPE svg PUBLIC "-//W3C//DTD SVG 20010904//EN"
 "http://www.w3.org/TR/2001/REC-SVG-20010904/DTD/svg10.dtd">
<svg version="1.0" xmlns="http://www.w3.org/2000/svg"
 width="512.000000pt" height="512.000000pt" viewBox="0 0 512.000000 512.000000"
 preserveAspectRatio="xMidYMid meet">

<g transform="translate(0.000000,512.000000) scale(0.100000,-0.100000)"
fill="#FFFFFF" stroke="none">
<path d="M1345 4819 l-302 -300 -64 21 c-245 83 -482 -154 -399 -399 l21 -64
-300 -302 c-323 -323 -323 -324 -280 -379 14 -18 30 -26 52 -26 29 0 64 32
332 300 165 165 304 300 310 300 5 0 257 -246 559 -547 l550 -548 27 -445 27
-445 -419 -420 -419 -420 -37 19 c-60 30 -161 33 -234 6 l-62 -22 -301 301
c-268 268 -305 301 -333 301 -22 0 -38 -8 -52 -26 -43 -55 -43 -56 280 -379
l300 -302 -21 -64 c-83 -245 154 -482 399 -399 l64 21 302 -300 c323 -323 324
-323 379 -280 18 14 26 30 26 52 0 29 -31 64 -290 322 -160 159 -290 294 -290
300 0 5 205 119 454 253 l453 243 49 -25 c82 -40 138 -46 434 -46 296 0 352 6
434 46 l49 25 453 -243 c249 -134 454 -248 454 -253 0 -6 -130 -141 -290 -300
-259 -258 -290 -293 -290 -322 0 -22 8 -38 26 -52 55 -43 56 -43 379 280 l302
300 64 -21 c245 -83 482 154 399 399 l-21 64 300 302 c323 323 323 324 280
379 -14 18 -30 26 -52 26 -28 0 -65 -33 -333 -301 l-301 -301 -62 22 c-73 27
-174 24 -234 -6 l-37 -19 -419 420 -419 420 27 445 27 445 550 548 c302 301
554 547 559 547 6 0 145 -135 310 -300 268 -268 303 -300 332 -300 22 0 38 8
52 26 43 55 43 56 -280 379 l-300 302 21 64 c83 245 -154 482 -399 399 l-64
-21 -302 300 c-323 323 -324 323 -379 280 -18 -14 -26 -30 -26 -52 0 -28 33
-65 301 -333 l301 -301 -21 -57 c-11 -31 -21 -78 -21 -104 l0 -48 -376 -263
-376 -263 -30 36 c-104 127 -238 214 -395 258 -109 30 -277 30 -386 0 -157
-44 -291 -131 -395 -258 l-30 -36 -376 263 -376 263 0 48 c0 26 -10 73 -21
104 l-21 57 301 301 c268 268 301 305 301 333 0 22 -8 38 -26 52 -55 43 -56
43 -379 -280z m-395 -431 c62 -32 92 -85 87 -156 -6 -85 -61 -141 -144 -149
-149 -15 -237 153 -140 264 57 65 122 79 197 41z m3353 8 c42 -17 93 -76 102
-116 24 -108 -66 -208 -178 -197 -83 8 -138 64 -144 149 -5 71 25 124 87 156
51 25 87 28 133 8z m-2707 -660 l271 -190 -25 -75 c-20 -61 -26 -104 -31 -224
l-6 -147 -419 419 -419 419 49 25 c27 14 64 41 83 61 l34 35 97 -67 c53 -37
218 -152 366 -256z m2513 224 l44 -22 -419 -419 -419 -419 -6 147 c-4 121 -10
162 -31 224 l-25 75 366 257 366 256 40 -39 c22 -21 60 -48 84 -60z m-1464
-120 c33 -5 84 -17 113 -26 l52 -17 0 -153 c0 -141 2 -156 20 -174 22 -22 60
-26 90 -10 27 14 40 64 40 153 l0 81 31 -30 c44 -41 112 -148 139 -219 38
-100 36 -224 -19 -1145 -54 -901 -50 -874 -113 -946 l-33 -37 -5 956 -5 956
-22 22 c-27 27 -75 29 -103 4 -20 -18 -20 -31 -22 -999 l-3 -981 -245 0 -245
0 -3 981 c-2 968 -2 981 -22 999 -28 25 -76 23 -103 -4 l-22 -22 -5 -956 -5
-956 -33 37 c-63 72 -59 45 -113 946 -55 921 -57 1045 -19 1145 27 71 95 178
139 219 l31 30 0 -81 c0 -89 13 -139 40 -153 30 -16 68 -12 90 10 18 18 20 33
20 174 l0 153 54 17 c108 34 187 41 281 26z m-737 -2335 c6 -62 17 -109 34
-146 l26 -56 -384 -207 c-211 -113 -385 -206 -387 -206 -3 0 -8 19 -11 43 -4
23 -15 57 -24 75 l-18 32 371 370 370 370 7 -93 c5 -50 12 -133 16 -182z
m2050 -497 c-10 -20 -20 -55 -24 -77 -4 -23 -8 -41 -11 -41 -2 0 -176 93 -387
206 l-384 207 25 54 c26 57 37 129 49 317 l6 109 372 -369 371 -369 -17 -37z
m-2991 6 c44 -33 66 -70 70 -121 16 -160 -173 -243 -280 -124 -54 60 -60 128
-17 198 42 70 163 94 227 47z m3354 6 c96 -49 116 -169 42 -251 -78 -87 -211
-72 -263 30 -74 147 74 295 221 221z"/>
<path d="M843 4308 c-12 -6 -27 -23 -33 -37 -30 -74 64 -136 118 -78 55 59
-13 151 -85 115z"/>
<path d="M4213 4310 c-46 -19 -57 -83 -20 -118 39 -37 99 -24 118 25 13 35 -4
77 -37 92 -29 13 -31 13 -61 1z"/>
<path d="M2511 1811 c-26 -26 -34 -88 -29 -216 4 -119 19 -148 78 -148 59 0
74 29 78 148 7 178 -12 235 -78 235 -16 0 -39 -9 -49 -19z"/>
<path d="M837 939 c-48 -28 -40 -107 12 -129 74 -30 136 64 78 118 -25 24 -61
28 -90 11z"/>
<path d="M4192 927 c-37 -39 -24 -99 25 -118 58 -22 116 36 94 94 -19 50 -83
63 -119 24z"/>
</g>
</svg>
