<?xml version="1.0" standalone="no"?>
<!DOCTYPE svg PUBLIC "-//W3C//DTD SVG 20010904//EN"
 "http://www.w3.org/TR/2001/REC-SVG-20010904/DTD/svg10.dtd">
<svg version="1.0" xmlns="http://www.w3.org/2000/svg"
 width="512.000000pt" height="512.000000pt" viewBox="0 0 512.000000 512.000000"
 preserveAspectRatio="xMidYMid meet">

<g transform="translate(0.000000,512.000000) scale(0.100000,-0.100000)"
fill="#FFFFFF" stroke="none">
<path d="M973 4422 c-122 -44 -203 -154 -203 -279 l0 -42 -297 -3 c-286 -3
-300 -4 -340 -25 -106 -57 -156 -192 -119 -317 30 -99 119 -172 273 -222 78
-26 102 -29 213 -29 69 0 157 4 197 8 l72 8 3 -373 c3 -365 3 -374 26 -415 59
-111 150 -168 267 -168 51 1 84 7 122 24 49 21 116 82 140 125 10 18 14 18 81
3 209 -47 445 -187 607 -359 60 -63 115 -152 115 -186 0 -24 84 -97 126 -110
57 -17 551 -17 608 0 42 13 126 86 126 110 0 34 55 123 115 186 162 172 398
312 607 359 67 15 71 15 81 -3 24 -43 91 -104 140 -125 38 -17 71 -23 122 -24
117 0 208 57 267 168 23 41 23 50 26 415 l3 373 72 -8 c40 -4 128 -8 197 -8
143 1 229 21 337 81 136 76 191 204 147 342 -21 63 -63 116 -117 145 -40 21
-54 22 -338 25 l-296 3 -5 62 c-9 108 -69 196 -166 244 -79 39 -183 39 -257 1
-98 -51 -156 -137 -170 -250 l-7 -58 -270 0 c-165 0 -286 -4 -313 -11 -61 -15
-127 -75 -155 -140 -18 -42 -21 -66 -18 -123 7 -125 54 -188 190 -256 120 -59
203 -74 368 -66 74 4 150 9 168 12 l32 6 0 -142 0 -142 -292 4 c-320 5 -343 9
-483 76 -135 65 -256 92 -415 92 -159 0 -285 -28 -410 -90 -135 -68 -168 -73
-487 -78 l-293 -4 0 142 0 142 33 -6 c17 -3 93 -8 167 -12 165 -8 248 7 368
66 135 67 183 131 190 253 5 85 -15 144 -71 204 -62 68 -93 73 -413 73 l-273
0 -6 58 c-4 31 -16 77 -27 102 -58 136 -228 211 -365 162z m163 -177 c33 -21
51 -53 59 -102 l7 -43 -131 0 -131 0 0 38 c0 102 111 163 196 107z m2969 11
c43 -18 75 -69 75 -118 l0 -38 -131 0 -131 0 7 43 c8 53 32 87 76 109 41 22
59 22 104 4z m-2170 -351 c34 -33 34 -93 0 -133 -56 -67 -219 -109 -383 -99
-102 7 -281 44 -393 82 -40 14 -82 25 -94 25 -12 0 -61 -14 -111 -30 -121 -41
-269 -70 -389 -77 -212 -11 -395 65 -395 165 0 28 25 78 42 85 7 3 392 6 856
6 l843 1 24 -25z m2970 19 c20 -8 45 -56 45 -86 0 -100 -183 -176 -395 -165
-120 7 -268 36 -389 77 -50 16 -99 30 -111 30 -12 0 -54 -11 -94 -25 -112 -38
-291 -75 -393 -82 -164 -10 -327 32 -383 99 -34 40 -34 100 0 133 l24 25 840
0 c462 0 847 -3 856 -6z m-3714 -360 c12 -7 11 -677 -1 -729 -18 -80 -104
-123 -175 -89 -75 35 -75 33 -75 450 l0 370 63 20 c61 20 63 20 121 2 32 -10
62 -21 67 -24z m2989 -369 c0 -416 0 -414 -75 -449 -50 -24 -99 -14 -141 28
-43 43 -46 71 -42 465 l3 324 65 22 65 22 62 -21 63 -20 0 -371z m-1390 13
c41 -15 111 -42 155 -62 148 -65 169 -68 503 -73 l303 -5 -3 -86 -3 -85 -65
-13 c-218 -44 -480 -194 -671 -384 -87 -87 -112 -119 -145 -185 -21 -44 -43
-83 -49 -87 -5 -4 -120 -8 -255 -8 -135 0 -250 4 -255 8 -6 4 -28 43 -49 87
-33 66 -58 98 -145 185 -191 189 -453 340 -666 383 l-70 14 -3 86 -3 87 253 0
c351 1 406 9 590 92 146 65 212 79 368 75 113 -3 147 -8 210 -29z"/>
<path d="M2480 2975 c-136 -43 -211 -207 -155 -343 21 -52 103 -128 153 -142
48 -13 117 -13 166 1 50 14 124 82 149 139 61 135 -15 303 -157 345 -60 18
-97 18 -156 0z m120 -170 c74 -38 44 -155 -39 -155 -88 0 -114 116 -36 158 27
15 41 15 75 -3z"/>
<path d="M1990 1940 c-50 -50 -25 -126 74 -226 68 -67 167 -122 276 -151 92
-25 349 -25 440 0 163 44 305 147 359 260 37 76 7 137 -67 137 -38 0 -82 -31
-82 -57 0 -5 -18 -31 -41 -56 -160 -182 -618 -182 -778 0 -23 25 -41 51 -41
58 0 6 -10 21 -23 33 -30 29 -89 30 -117 2z"/>
<path d="M1648 1680 c-26 -27 -30 -36 -25 -67 13 -81 128 -227 243 -309 203
-145 509 -214 829 -185 232 20 412 80 561 186 111 80 228 229 241 308 5 31 1
40 -25 67 -53 53 -106 35 -148 -49 -46 -91 -151 -188 -264 -243 -117 -58 -218
-84 -377 -99 -325 -31 -623 51 -788 216 -42 41 -83 93 -99 126 -42 84 -95 102
-148 49z"/>
<path d="M1312 1430 c-49 -46 -34 -111 59 -245 178 -258 492 -427 898 -480
137 -19 445 -19 582 0 329 43 581 153 774 336 122 116 226 285 211 344 -14 56
-75 82 -127 55 -10 -6 -33 -40 -51 -75 -127 -262 -450 -448 -860 -496 -153
-17 -476 -7 -611 20 -354 71 -632 258 -735 493 -11 25 -29 51 -40 57 -32 17
-76 13 -100 -9z"/>
</g>
</svg>
