<?xml version="1.0" standalone="no"?>
<!DOCTYPE svg PUBLIC "-//W3C//DTD SVG 20010904//EN"
 "http://www.w3.org/TR/2001/REC-SVG-20010904/DTD/svg10.dtd">
<svg version="1.0" xmlns="http://www.w3.org/2000/svg"
 width="512.000000pt" height="512.000000pt" viewBox="0 0 512.000000 512.000000"
 preserveAspectRatio="xMidYMid meet">

<g transform="translate(0.000000,512.000000) scale(0.100000,-0.100000)"
fill="#FFFFFF" stroke="none">
<path d="M2270 4350 c-682 -105 -1244 -565 -1478 -1210 -70 -194 -117 -460
-111 -624 4 -76 7 -88 35 -122 54 -68 77 -79 158 -79 60 0 78 4 108 24 60 41
79 80 89 178 5 49 13 131 19 183 41 375 258 743 581 985 382 286 880 366 1340
215 468 -153 826 -533 958 -1014 27 -97 51 -258 51 -338 0 -80 14 -129 47
-168 103 -123 301 -77 343 79 10 40 -1 251 -20 356 -129 724 -650 1297 -1355
1492 -228 63 -529 80 -765 43z"/>
<path d="M2381 3345 c-175 -40 -300 -105 -422 -222 -133 -127 -220 -286 -253
-462 -32 -167 -14 -251 67 -315 29 -24 50 -31 97 -34 122 -9 203 65 215 196
12 142 57 242 145 326 94 90 193 129 325 128 95 -1 170 -24 250 -77 110 -73
177 -183 196 -321 15 -116 27 -150 60 -188 86 -99 243 -86 312 26 26 42 29 55
28 127 -2 191 -74 378 -205 535 -92 111 -283 231 -431 271 -85 23 -302 29
-384 10z"/>
<path d="M2023 1999 c-146 -14 -268 -71 -369 -173 -116 -117 -166 -248 -167
-441 -2 -326 155 -543 445 -617 109 -27 298 -22 398 12 198 67 333 213 387
420 20 79 22 260 4 340 -7 30 -31 93 -54 140 -109 230 -348 348 -644 319z
m200 -319 c79 -54 119 -157 118 -308 0 -212 -83 -332 -228 -332 -148 1 -233
125 -233 339 0 158 46 267 131 310 61 31 160 26 212 -9z"/>
<path d="M0 1375 l0 -595 176 0 176 0 -6 333 c-3 182 -8 352 -11 377 -3 25 44
-124 103 -330 l108 -375 139 0 138 0 105 372 c58 205 107 371 109 369 2 -2 -1
-50 -7 -106 -5 -56 -10 -223 -10 -371 l0 -269 175 0 175 0 0 595 0 595 -238 0
-238 0 -104 -366 c-58 -207 -106 -360 -110 -353 -4 8 -52 173 -106 366 l-99
353 -237 0 -238 0 0 -595z"/>
<path d="M2860 1374 l0 -596 348 5 c275 3 358 7 400 20 204 60 325 183 378
382 26 98 26 325 0 410 -42 141 -134 253 -251 309 -123 58 -187 66 -547 66
l-328 0 0 -596z m652 284 c77 -46 117 -165 104 -313 -18 -204 -101 -285 -293
-285 l-73 0 0 316 0 316 108 -3 c95 -4 112 -7 154 -31z"/>
<path d="M4120 1375 l0 -595 500 0 500 0 0 140 0 140 -305 0 -305 0 0 90 0 90
248 2 247 3 3 137 3 138 -248 2 -248 3 -3 82 -3 83 293 2 293 3 3 138 3 137
-491 0 -490 0 0 -595z"/>
</g>
</svg>
